# AST/ASF file generated using VICON BodyLanguage
# -----------------------------------------------
:version 1.10
:name VICON
:units
  mass 1.0
  length 0.45
  angle deg
:documentation
   .ast/.asf automatically generated from VICON data using
   VICON BodyBuilder and BodyLanguage model FoxedUp or BRILLIANT.MOD
:root
   order TX TY TZ RX RY RZ
   axis XYZ
   position 0 0 0  
   orientation 0 0 0 
:bonedata
  begin
     id 1 
     name lhipjoint
     direction 0.635376 -0.686425 0.353719 
     length 2.47244 
     axis 0 0 0  XYZ
  end
  begin
     id 2 
     name lfemur
     direction 0.34202 -0.939693 0  
     length 7.25268  
     axis 0 0 20  XYZ
    dof rx ry rz
    limits (-160.0 20.0)
           (-70.0 70.0)
           (-60.0 70.0)
  end
  begin
     id 3 
     name ltibia
     direction 0.34202 -0.939693 0   
     length 7.6767   
     axis 0 0 20   XYZ
    dof rx
    limits (-10.0 170.0)
  end
  begin
     id 4 
     name lfoot
     direction 0.0803374 -0.220725 0.972022   
     length 2.22945   
     axis -90 7.62852e-016 20   XYZ
    dof rx rz
    limits (-45.0 90.0)
           (-70.0 20.0)
  end
  begin
     id 5 
     name ltoes
     direction 1.53579e-011 -4.21994e-011 1   
     length 1.11848   
     axis -90 7.62852e-016 20   XYZ
    dof rx
    limits (-90.0 20.0)
  end
  begin
     id 6 
     name rhipjoint
     direction -0.664428 -0.664335 0.342336   
     length 2.55466  
     axis 0 0 0  XYZ 
  end
  begin
     id 7 
     name rfemur
     direction -0.34202 -0.939693 0   
     length 6.83172   
     axis 0 0 -20   XYZ
    dof rx ry rz
    limits (-160.0 20.0)
           (-70.0 70.0)
           (-70.0 60.0)
  end
  begin
     id 8 
     name rtibia
     direction -0.34202 -0.939693 0   
     length 7.62692   
     axis 0 0 -20   XYZ
    dof rx
    limits (-10.0 170.0)
 end
 begin
     id 9 
     name rfoot
     direction -0.0949276 -0.260811 0.960711   
     length 2.19684  
     axis -90 -7.62852e-016 -20   XYZ
    dof rx rz
    limits (-45.0 90.0)
           (-20.0 70.0)
  end
  begin
     id 10 
     name rtoes
     direction -1.53543e-011 -4.2183e-011 1   
     length 1.09848   
     axis -90 -7.62852e-016 -20   XYZ
    dof rx
    limits (-90.0 20.0)
  end
  begin
     id 11 
     name lowerback
     direction 0.0118782 0.999815 -0.0151555   
     length 2.15772   
     axis 0 0 0   XYZ
    dof rx ry rz
    limits (-20.0 45.0)
           (-30.0 30.0)
           (-30.0 30.0)
  end
  begin
     id 12 
     name upperback
     direction 0.00130825 0.999065 0.0432113   
     length 2.14863   
     axis 0 0 0   XYZ
    dof rx ry rz
    limits (-20.0 45.0)
           (-30.0 30.0)
           (-30.0 30.0)
  end
  begin
     id 13 
     name thorax
     direction -0.00347005 0.998773 0.0494011   
     length 2.14936   
     axis 0 0 0   XYZ
    dof rx ry rz
    limits (-20.0 45.0)
           (-30.0 30.0)
           (-30.0 30.0)
  end
  begin
     id 14 
     name lowerneck
     direction -0.0262159 0.99424 0.103921   
     length 1.69373   
     axis 0 0 0   XYZ
    dof rx ry rz
    limits (-20.0 45.0)
           (-30.0 30.0)
           (-30.0 30.0)
  end
  begin
     id 15 
     name upperneck
     direction 0.0353511 0.977394 -0.20845   
     length 1.70857   
     axis 0 0 0   XYZ
    dof rx ry rz
    limits (-20.0 45.0)
           (-30.0 30.0)
           (-30.0 30.0)
  end
  begin
     id 16
     name head
     direction 0.0139214 0.996594 -0.0812836  
     length 1.72777  
     axis 0 0 0   XYZ
    dof rx ry rz
    limits (-20.0 45.0)
           (-30.0 30.0)
           (-30.0 30.0)
  end
  begin
     id 17 
     name lclavicle
     direction 0.841247 0.537205 -0.0609508  
     length 3.55371  
     axis 0 0 0   XYZ
    dof ry rz
    limits (-20.0 10.0)
           (0.0 20.0)
  end
  begin
     id 18 
     name lhumerus
     direction 1 -4.48964e-011 1.60116e-018   
     length 4.91377   
     axis -180 -30 -90   XYZ
    dof rx ry rz
    limits (-60.0 90.0)
           (-90.0 90.0)
           (-90.0 90.0)
  end
  begin
     id 19
     name lradius
     direction 1 -4.48989e-011 -8.93847e-027   
     length 3.00291   
     axis -180 -30 -90   XYZ
    dof rx
    limits (-10.0 170.0)
  end
  begin
     id 20
     name lwrist
     direction 1 -4.48932e-011 -7.31504e-027   
     length 1.50145   
     axis 5.74121e-015 90 90   XYZ
    dof ry
    limits (-180.0 0.0)
 end
  begin
     id 21 
     name lhand
     direction 1 -4.48971e-011 -1.46301e-026   
     length 0.450922   
     axis 9.33524e-015 90 90   XYZ
    dof rx rz
    limits (-90.0 90.0)
           (-45.0 45.0)
  end
  begin
     id 22 
     name lfingers
     direction 1 -4.49039e-011 -2.92602e-026   
     length 0.363545   
     axis 1.86705e-014 90 90   XYZ
    dof rx
    limits (0.0 90.0)
  end
  begin
     id 23
     name lthumb
     direction 0.707107 -6.34941e-011 0.707107   
     length 0.52198   
     axis -90 45 2.85299e-015   XYZ
    dof rx rz
    limits (-45.0 45.0)
           (-45.0 45.0)
  end
  begin
     id 24 
     name rclavicle
     direction -0.825079 0.56158 -0.0622297   
     length 3.39909  
     axis 0 0 0   XYZ 
    dof ry rz
    limits (-10.0 20.0)
           (-20.0 0.0)
  end
  begin
     id 25 
     name rhumerus
     direction -1 -4.48965e-011 1.61691e-027  
     length 4.86725   
     axis -180 30 90   XYZ
    dof rx ry rz
    limits (-90.0 60.0)
           (-90.0 90.0)
           (-90.0 90.0)
  end
  begin
     id 26 
     name rradius
     direction -1 -4.48964e-011 -2.25776e-027   
     length 3.17144   
     axis -180 30 90   XYZ
    dof rx
    limits (-10.0 170.0)
  end
  begin
     id 27 
     name rwrist
     direction -1 -4.48961e-011 -7.31504e-027   
     length 1.58572   
     axis 5.74121e-015 -90 -90   XYZ
    dof ry
    limits (-180.0 0.0)
  end
  begin
     id 28
     name rhand
     direction -1 -4.49013e-011 -1.46301e-026   
     length 0.419368   
     axis 9.33524e-015 -90 -90   XYZ
    dof rx rz
    limits (-90.0 90.0)
           (-45.0 45.0)
  end
  begin
     id 29
     name rfingers
     direction -1 -4.489e-011 -2.92602e-026   
     length 0.338105   
     axis 1.86705e-014 -90 -90   XYZ
    dof rx
    limits (0.0 90.0)
  end
  begin
     id 30
     name rthumb
     direction -0.707107 -6.35022e-011 0.707107   
     length 0.485453   
     axis -90 -45 -2.85299e-015   XYZ
    dof rx rz
    limits (-45.0 45.0)
           (-45.0 45.0)
  end
:hierarchy
  begin
    root lhipjoint rhipjoint lowerback
    lhipjoint lfemur
    lfemur ltibia
    ltibia lfoot
    lfoot ltoes
    rhipjoint rfemur
    rfemur rtibia
    rtibia rfoot
    rfoot rtoes
    lowerback upperback
    upperback thorax
    thorax lowerneck lclavicle rclavicle
    lowerneck upperneck
    upperneck head
    lclavicle lhumerus
    lhumerus lradius
    lradius lwrist
    lwrist lhand lthumb
    lhand lfingers
    rclavicle rhumerus
    rhumerus rradius
    rradius rwrist
    rwrist rhand rthumb
    rhand rfingers
  end

#!OML:ASF H:\Swim 2\Project 1\Capture day 1\Session 1\male.ASF
:FULLY-SPECIFIED
:DEGREES
99
root 5.56137 13.9482 19.0735 7.0568 -1.18642 -0.534931
lowerback 4.46814 -1.33858 1.55239
upperback -4.12575 -1.65504 0.369061
thorax -6.84272 -0.882348 -0.313269
lowerneck -19.4171 -2.07602 -5.13883
upperneck 25.1002 -2.76271 5.08749
head 11.5533 -1.09292 2.31914
rclavicle 2.5109e-014 1.98785e-016
rhumerus 27.2815 18.7888 -40.5064
rradius 90.1186
rwrist -11.9821
rhand 33.1248 -11.5336
rfingers 7.12502
rthumb 56.4922 -28.535
lclavicle 2.5109e-014 1.98785e-016
lhumerus 15.353 -10.4536 58.0468
lradius 94.2355
lwrist -0.380459
lhand 32.8591 20.0831
lfingers 7.12502
lthumb 56.2574 37.2715
rfemur -44.2637 -15.818 17.9903
rtibia 81.5956
rfoot -34.6497 10.8471
rtoes -16.6807
lfemur -43.1793 15.5729 -17.2332
ltibia 86.7128
lfoot -33.0737 7.53954
ltoes -14.8912
100
root 5.56409 13.9564 19.0698 7.05889 -1.16674 -0.553314
lowerback 4.51666 -1.35178 1.57406
upperback -4.14358 -1.66905 0.383764
thorax -6.89032 -0.890131 -0.307008
lowerneck -19.4384 -2.09522 -5.16363
upperneck 25.0654 -2.7823 5.09689
head 11.546 -1.10264 2.32315
rclavicle -2.47914e-014 8.15017e-015
rhumerus 27.3135 18.8099 -40.4759
rradius 90.0641
rwrist -11.9549
rhand 33.0586 -11.4968
rfingers 7.12502
rthumb 56.4337 -28.5451
lclavicle -2.47914e-014 8.15017e-015
lhumerus 15.2748 -10.4619 58.0632
lradius 94.2367
lwrist -0.428876
lhand 32.8791 20.0394
lfingers 7.12502
lthumb 56.275 37.2138
rfemur -44.2406 -15.8849 17.9901
rtibia 81.5022
rfoot -34.5959 10.9653
rtoes -16.7885
lfemur -43.1563 15.5763 -17.2137
ltibia 86.6081
lfoot -33.0637 7.49476
ltoes -15.0535
101
root 5.56703 13.9652 19.0661 7.05903 -1.154 -0.563053
lowerback 4.57176 -1.36199 1.59302
upperback -4.16322 -1.67945 0.39255
thorax -6.94371 -0.896192 -0.305566
lowerneck -19.4549 -2.11338 -5.19575
upperneck 25.0208 -2.79919 5.11105
head 11.534 -1.11129 2.33044
rclavicle -1.67647e-014 6.16232e-015
rhumerus 27.3376 18.8282 -40.4504
rradius 90.0193
rwrist -11.9233
rhand 32.9949 -11.4587
rfingers 7.12502
rthumb 56.3775 -28.5518
lclavicle -1.67647e-014 6.16232e-015
lhumerus 15.1951 -10.4703 58.0784
lradius 94.2445
lwrist -0.444751
lhand 32.9379 20.0194
lfingers 7.12502
lthumb 56.327 37.1526
rfemur -44.2143 -15.94 17.9752
rtibia 81.4038
rfoot -34.5406 11.0926
rtoes -16.8814
lfemur -43.1213 15.5691 -17.2037
ltibia 86.4895
lfoot -33.0566 7.46261
ltoes -15.2322
102
root 5.57001 13.9745 19.0625 7.05859 -1.14904 -0.565095
lowerback 4.6275 -1.36927 1.60793
upperback -4.1809 -1.68657 0.39581
thorax -6.99539 -0.900576 -0.307965
lowerneck -19.4648 -2.12925 -5.23298
upperneck 24.959 -2.81309 5.13348
head 11.5142 -1.11808 2.34185
rclavicle -4.40199e-015 1.99779e-014
rhumerus 27.3581 18.8402 -40.4317
rradius 89.9851
rwrist -11.8872
rhand 32.9373 -11.4268
rfingers 7.12502
rthumb 56.3265 -28.5604
lclavicle -4.40199e-015 1.99779e-014
lhumerus 15.1194 -10.4739 58.0906
lradius 94.2574
lwrist -0.423024
lhand 33.0207 20.0195
lfingers 7.12502
lthumb 56.4003 37.0945
rfemur -44.1827 -15.9785 17.947
rtibia 81.2984
rfoot -34.4889 11.2197
rtoes -16.9804
lfemur -43.0755 15.5543 -17.2008
ltibia 86.3586
lfoot -33.0541 7.43119
ltoes -15.4023
103
root 5.57295 13.9842 19.0587 7.06263 -1.15153 -0.561282
lowerback 4.68001 -1.37342 1.61875
upperback -4.19921 -1.6901 0.394913
thorax -7.04582 -0.903119 -0.312865
lowerneck -19.4746 -2.1429 -5.2619
upperneck 24.8899 -2.82499 5.15168
head 11.4914 -1.12368 2.35045
rclavicle 1.39242e-014 9.93923e-016
rhumerus 27.3736 18.8494 -40.4167
rradius 89.9625
rwrist -11.8482
rhand 32.8825 -11.4024
rfingers 7.12502
rthumb 56.2781 -28.5744
lclavicle 1.39242e-014 9.93923e-016
lhumerus 15.0465 -10.4751 58.1002
lradius 94.2757
lwrist -0.366336
lhand 33.1167 20.0416
lfingers 7.12502
lthumb 56.485 37.0487
rfemur -44.1508 -15.9973 17.9104
rtibia 81.1845
rfoot -34.4422 11.3415
rtoes -17.0838
lfemur -43.0269 15.5356 -17.2042
ltibia 86.2191
lfoot -33.0534 7.40293
ltoes -15.5801
104
root 5.57577 13.9942 19.055 7.07385 -1.16221 -0.553005
lowerback 4.72645 -1.37377 1.62364
upperback -4.21743 -1.68927 0.392018
thorax -7.09243 -0.903263 -0.317174
lowerneck -19.4877 -2.15489 -5.28343
upperneck 24.8143 -2.83544 5.16623
head 11.4664 -1.12832 2.35654
rclavicle -7.54062e-015 1.46107e-014
rhumerus 27.3821 18.8533 -40.4032
rradius 89.9539
rwrist -11.8068
rhand 32.837 -11.384
rfingers 7.12502
rthumb 56.2378 -28.5878
lclavicle -7.54062e-015 1.46107e-014
lhumerus 14.9804 -10.4726 58.108
lradius 94.2991
lwrist -0.290291
lhand 33.2084 20.0777
lfingers 7.12502
lthumb 56.566 37.0196
rfemur -44.1217 -15.9949 17.8695
rtibia 81.0624
rfoot -34.4014 11.4518
rtoes -17.1873
lfemur -42.9812 15.5164 -17.2129
ltibia 86.0754
lfoot -33.0529 7.37105
ltoes -15.7471
105
root 5.5785 14.0045 19.0512 7.09369 -1.17959 -0.541588
lowerback 4.76541 -1.37118 1.62382
upperback -4.23558 -1.68507 0.388177
thorax -7.13444 -0.901537 -0.320398
lowerneck -19.5055 -2.16475 -5.29863
upperneck 24.7338 -2.84389 5.17894
head 11.4403 -1.13161 2.36111
rclavicle 4.45247e-015 5.66536e-015
rhumerus 27.3901 18.8542 -40.3851
rradius 89.956
rwrist -11.769
rhand 32.7905 -11.3709
rfingers 7.12502
rthumb 56.1967 -28.607
lclavicle 4.45247e-015 5.66536e-015
lhumerus 14.9203 -10.4668 58.113
lradius 94.3268
lwrist -0.214411
lhand 33.2734 20.1143
lfingers 7.12502
lthumb 56.6233 37.0098
rfemur -44.0963 -15.9746 17.8288
rtibia 80.9311
rfoot -34.3672 11.5404
rtoes -17.2974
lfemur -42.9431 15.4965 -17.2276
ltibia 85.9318
lfoot -33.048 7.3463
ltoes -15.9289
106
root 5.58116 14.0149 19.0472 7.12271 -1.20278 -0.5297
lowerback 4.79622 -1.36548 1.62213
upperback -4.25486 -1.67702 0.384397
thorax -7.17282 -0.897821 -0.323143
lowerneck -19.5251 -2.17566 -5.31245
upperneck 24.65 -2.85361 5.19015
head 11.4134 -1.1355 2.36462
rclavicle -5.67235e-015 -2.18663e-015
rhumerus 27.3956 18.8517 -40.3616
rradius 89.9667
rwrist -11.7369
rhand 32.7494 -11.3562
rfingers 7.12502
rthumb 56.1603 -28.6209
lclavicle -5.67235e-015 -2.18663e-015
lhumerus 14.8652 -10.4602 58.1159
lradius 94.3591
lwrist -0.155524
lhand 33.3099 20.1426
lfingers 7.12502
lthumb 56.6555 37.012
rfemur -44.0775 -15.9394 17.7939
rtibia 80.7929
rfoot -34.3395 11.6043
rtoes -17.4037
lfemur -42.9179 15.4763 -17.2459
ltibia 85.7933
lfoot -33.0337 7.32611
ltoes -16.1112
107
root 5.58382 14.0254 19.0432 7.15922 -1.23007 -0.518759
lowerback 4.82226 -1.35767 1.62092
upperback -4.27699 -1.66613 0.381439
thorax -7.21141 -0.892733 -0.325698
lowerneck -19.5443 -2.1859 -5.32851
upperneck 24.5638 -2.86085 5.19894
head 11.3854 -1.13879 2.36797
rclavicle -1.08035e-014 -4.37326e-015
rhumerus 27.3986 18.8482 -40.3336
rradius 89.9845
rwrist -11.7116
rhand 32.7177 -11.3411
rfingers 7.12502
rthumb 56.1323 -28.6278
lclavicle -1.08035e-014 -4.37326e-015
lhumerus 14.8106 -10.455 58.1171
lradius 94.3972
lwrist -0.123152
lhand 33.3174 20.1693
lfingers 7.12502
lthumb 56.6622 37.0334
rfemur -44.0638 -15.8943 17.7671
rtibia 80.6479
rfoot -34.3148 11.6465
rtoes -17.489
lfemur -42.9055 15.4542 -17.2668
ltibia 85.663
lfoot -33.0076 7.30477
ltoes -16.2791
